# xmcd
#
# Track frame offsets: 
#        187
#        28327
#        53107
#        69510
#
# Disc length: 1179 seconds
#
# Revision: 2
# Processed by: cddbd v1.5.2PL0 Copyright (c) Steve Scherf et al.
# Submitted via: ExactAudioCopy v0.95b4
#
DISCID=33049904
DTITLE=B.B. King - B.B. King [CD3 Gold Vintage)
DYEAR=1988
DGENRE=Blues
TTITLE0=Don't Answer The Door
TTITLE1=The Thrill Is Gone
TTITLE2=Ain't Nobody Home
TTITLE3=Into The Night
EXTD=
EXTT0=
EXTT1=
EXTT2=
EXTT3=
PLAYORDER=
